<?xml version="1.0" encoding="utf-8"?>
<!-- Generator: Adobe Illustrator 25.2.1, SVG Export Plug-In . SVG Version: 6.00 Build 0)  -->
<svg version="1.1" id="Layer_1" xmlns="http://www.w3.org/2000/svg" xmlns:xlink="http://www.w3.org/1999/xlink" x="0px" y="0px"
	 viewBox="0 0 100 100" style="enable-background:new 0 0 100 100;" xml:space="preserve">
<style type="text/css">
	.st0{fill:#EDD38F;}
</style>
<circle class="st0" cx="50" cy="49.1" r="47.1"/>
<path image-rendering="auto" color-rendering="auto" shape-rendering="auto" d="M50,0C22.4,0,0,22.4,0,50s22.4,50,50,50
	s50-22.4,50-50S77.6,0,50,0 M50,4.5c25.1,0,45.5,20.3,45.5,45.5c0,25.1-20.3,45.5-45.5,45.5C24.9,95.5,4.5,75.1,4.5,50
	C4.5,24.9,24.9,4.5,50,4.5 M33.5,37.5c-4.1,0-7.4,3.3-7.4,7.4s3.3,7.4,7.4,7.4s7.4-3.3,7.4-7.4S37.6,37.5,33.5,37.5 M66.5,37.5
	c-4.1,0-7.4,3.3-7.4,7.4s3.3,7.4,7.4,7.4s7.4-3.3,7.4-7.4S70.6,37.5,66.5,37.5 M33.4,67l-3.9,2.3c0,0,7.3,12.4,20.5,12.4
	s20.5-12.4,20.5-12.4L66.6,67c0,0-6.4,10.2-16.6,10.2S33.4,67,33.4,67"/>
</svg>
